<svg version="1.1" id="el_ypLMaZA_1" xmlns="http://www.w3.org/2000/svg" xmlns:xlink="http://www.w3.org/1999/xlink" x="0px" y="0px" viewBox="0 0 600 600" style="enable-background:new 0 0 600 600;" xml:space="preserve" height="600" width="600"><style>@-webkit-keyframes el_aHDTYco3mi_nzMFXoBG8_Animation{0%{-webkit-transform: translate(12px, 8px);transform: translate(12px, 8px);}17.78%{-webkit-transform: translate(28px, 5px);transform: translate(28px, 5px);}100%{-webkit-transform: translate(28px, 5px);transform: translate(28px, 5px);}}@keyframes el_aHDTYco3mi_nzMFXoBG8_Animation{0%{-webkit-transform: translate(12px, 8px);transform: translate(12px, 8px);}17.78%{-webkit-transform: translate(28px, 5px);transform: translate(28px, 5px);}100%{-webkit-transform: translate(28px, 5px);transform: translate(28px, 5px);}}#el_ypLMaZA_1 *{-webkit-animation-duration: 3s;animation-duration: 3s;-webkit-animation-timing-function: cubic-bezier(0, 0, 1, 1);animation-timing-function: cubic-bezier(0, 0, 1, 1);}#el_mhLPzgBogF{fill: #FFD97D;}#el_ifqPZOBU61{fill: #EE6055;}#el_ntTpYMQgWt{fill: #FFD97D;}#el_pcIvm-ljub{fill: #EE6055;}#el_l48oIR_Q38{-webkit-clip-path: url(#SVGID_2_);clip-path: url(#SVGID_2_);}#el_1LSR6qR6od{fill: #141414;}#el_X-5lreI5CI{fill: #141414;}#el_EsSRMG6nP_{fill: #141414;}#el_VwHSD731iy{fill: #141414;}#el_527JvcE5YP{-webkit-clip-path: url(#SVGID_4_);clip-path: url(#SVGID_4_);}#el_lpaF3rt9NZ{fill: #EE6055;}#el_c_ubkfA1QS{fill: #FFD97D;}#el_ofkOVlhZKYf{fill: #EE6055;}#el_7ukr5n95Ft9{fill: #FFD97D;}#el_aHDTYco3mi_nzMFXoBG8{-webkit-animation-name: el_aHDTYco3mi_nzMFXoBG8_Animation;animation-name: el_aHDTYco3mi_nzMFXoBG8_Animation;-webkit-transform-origin: 50% 50%;transform-origin: 50% 50%;transform-box: fill-box;-webkit-transform: translate(28px, 5px);transform: translate(28px, 5px);-webkit-animation-timing-function: cubic-bezier(0.42, 0, 0.58, 1);animation-timing-function: cubic-bezier(0.42, 0, 0.58, 1);}</style>

<g id="el_omVGpffiFD">
	<path d="M150.9,264l-1.5-1.5h-27.6c-2.6,0-5.1-0.1-7.7-0.4c-2.6-0.3-4.9-0.8-6.9-1.7c-2.1-0.9-3.8-2.1-5.1-3.8&#xA;&#9;&#9;c-1.3-1.7-2-4-2-6.9c0-3.3,0.7-6,2-7.9c1.3-1.9,3-3.4,5.1-4.4c2.1-1,4.4-1.6,6.9-1.9c2.6-0.3,5.1-0.4,7.7-0.4h50.4&#xA;&#9;&#9;c2.4,0,4.6,0.4,6.5,1.3c1.9,0.9,3.5,2,4.7,3.4c1.3,1.4,2.3,3,2.9,4.7s1,3.5,1,5.2c0,1-0.1,1.9-0.3,2.8c-0.2,0.9-0.5,1.7-0.9,2.4&#xA;&#9;&#9;l-49.3,85.7l1.3,1.3h27.6c2.5,0,5,0.1,7.6,0.4c2.6,0.3,4.9,0.8,7,1.8c2.1,0.9,3.8,2.3,5.1,4.1c1.3,1.8,2,4.3,2,7.4&#xA;&#9;&#9;c0,3.2-0.7,5.7-2,7.5c-1.3,1.8-3,3.2-5.1,4.1c-2.1,0.9-4.4,1.5-7,1.8c-2.6,0.3-5.1,0.4-7.6,0.4h-50.4c-2.4,0-4.6-0.4-6.5-1.2&#xA;&#9;&#9;c-1.9-0.8-3.5-1.8-4.8-3.1c-1.3-1.3-2.3-2.7-3-4.4c-0.7-1.7-1.1-3.4-1.1-5.1c0-1.1,0.1-2.2,0.2-3c0.2-0.9,0.5-1.8,1.1-2.7&#xA;&#9;&#9;L150.9,264z" id="el_mhLPzgBogF"/>
	<path d="M203.2,273.1c0-6.1,0.9-11.4,2.7-15.7c1.8-4.3,4.1-7.9,6.9-10.8c2.8-2.9,5.8-5.1,9.2-6.8&#xA;&#9;&#9;c3.4-1.6,6.6-2.9,9.8-3.7c3.2-0.8,6-1.3,8.6-1.5c2.6-0.2,4.4-0.3,5.7-0.3h3.3c1.2,0,3.1,0.1,5.7,0.3c2.6,0.2,5.4,0.7,8.5,1.5&#xA;&#9;&#9;c3.1,0.8,6.4,2.1,9.7,3.7c3.4,1.6,6.4,3.9,9.1,6.8c2.7,2.9,5,6.5,6.7,10.8c1.8,4.3,2.6,9.5,2.6,15.7v57.3c0,6.3-0.9,11.7-2.6,16.1&#xA;&#9;&#9;c-1.8,4.4-4,8.1-6.7,11c-2.7,2.9-5.8,5.3-9.1,6.9c-3.4,1.7-6.6,3-9.7,3.8c-3.1,0.8-6,1.3-8.5,1.5c-2.6,0.2-4.4,0.3-5.7,0.3H246&#xA;&#9;&#9;c-1.2,0-3.1-0.1-5.7-0.3c-2.6-0.2-5.4-0.7-8.6-1.5c-3.2-0.8-6.4-2.1-9.8-3.8c-3.4-1.7-6.4-4-9.2-6.9c-2.8-2.9-5.1-6.6-6.9-11&#xA;&#9;&#9;c-1.8-4.4-2.7-9.8-2.7-16.1V273.1z M235,334c0.1,2.4,0.7,4.4,1.6,6.2c0.8,1.6,2.1,3,3.8,4.3c1.7,1.3,4.1,1.9,7.2,1.9&#xA;&#9;&#9;c3.1,0,5.4-0.6,7.1-1.9c1.7-1.3,2.9-2.7,3.7-4.3c0.9-1.8,1.4-3.9,1.6-6.2v-62.5c-0.2-2.3-0.7-4.4-1.6-6.2c-0.8-1.5-2.1-3-3.7-4.3&#xA;&#9;&#9;c-1.7-1.3-4-2-7.1-2c-3.1,0-5.5,0.7-7.2,2c-1.7,1.3-3,2.7-3.8,4.3c-1,1.9-1.5,3.9-1.6,6.2V334z" id="el_ifqPZOBU61"/>
	<path d="M315,256.9c0-2.7,0.1-5.4,0.2-8.1c0.2-2.6,0.7-5,1.6-7c0.9-2,2.3-3.7,4.3-4.9c1.9-1.2,4.7-1.9,8.3-1.9H361&#xA;&#9;&#9;c7.9,0.4,14.9,2,21.1,5c2.6,1.3,5.2,2.9,7.7,4.7c2.5,1.9,4.8,4.2,6.8,7c2,2.8,3.6,6.1,4.8,9.8c1.2,3.8,1.8,8.1,1.8,13.1&#xA;&#9;&#9;c0,1-0.1,2.4-0.3,4.1c-0.2,1.7-0.6,3.5-1.2,5.6c-0.6,2-1.5,4.1-2.6,6.3c-1.1,2.2-2.5,4.3-4.3,6.2c-1.8,2-4,3.8-6.6,5.5&#xA;&#9;&#9;c-2.6,1.7-5.6,3-9.2,4c2.2,0.9,4.5,2.1,6.8,3.5s4.4,3.3,6.2,5.5c1.9,2.2,3.4,4.9,4.6,8.1c1.2,3.1,1.8,6.8,1.8,10.9V348&#xA;&#9;&#9;c0,0.8,0.2,1.4,0.6,1.9c0.4,0.5,0.8,1,1.1,1.3c1.5,1.5,2.4,2.9,2.7,4c0.3,1.1,0.4,2,0.4,2.7c0,2.2-0.4,4.1-1.3,5.7&#xA;&#9;&#9;c-0.9,1.5-2.1,2.8-3.5,3.7c-1.4,1-3.1,1.6-4.9,2.1s-3.7,0.6-5.6,0.6c-2.1,0-4.3-0.3-6.4-1c-2.2-0.7-4.2-1.6-5.9-2.9&#xA;&#9;&#9;c-1.8-1.3-3.2-2.9-4.4-4.8c-1.1-1.9-1.7-4.1-1.7-6.6v-20.3c0-2.8-0.2-5.4-0.6-7.8c-0.4-2.4-1.1-4.4-2.2-6.1c-1.1-1.7-2.6-3.1-4.5-4&#xA;&#9;&#9;c-1.9-1-4.4-1.4-7.5-1.4h-10.7v32c0,2.8-0.1,5.6-0.2,8.2c-0.2,2.7-0.7,5.1-1.6,7.1c-0.9,2.1-2.3,3.7-4.3,5c-2,1.2-4.8,1.9-8.4,1.9&#xA;&#9;&#9;c-3.6,0-6.3-0.6-8.3-1.9c-2-1.2-3.4-2.9-4.3-5c-0.9-2.1-1.4-4.5-1.6-7.1c-0.2-2.7-0.2-5.4-0.2-8.2V256.9z M357,293.6&#xA;&#9;&#9;c3.2-0.1,6.1-0.9,8.6-2.3c1.1-0.6,2.1-1.3,3.2-2.2c1-0.9,1.9-2,2.8-3.4c0.8-1.3,1.5-2.9,2-4.7c0.5-1.8,0.7-3.9,0.7-6.2&#xA;&#9;&#9;c0-2.1-0.2-4-0.7-5.6c-0.5-1.6-1.1-3.1-1.9-4.3c-0.8-1.2-1.6-2.2-2.6-3.1c-1-0.8-2-1.5-3-2c-2.4-1.2-5.2-1.9-8.2-2.1h-13.8v35.8&#xA;&#9;&#9;H357z" id="el_ntTpYMQgWt"/>
	<path d="M508.8,320.8c0.1,4.3,0.3,8.8,0.5,13.3c0.2,4.5,0.3,8.9,0.3,13.1v2.9c0,2.4-0.1,4.8-0.2,7&#xA;&#9;&#9;c-0.2,2.3-0.7,4.3-1.5,6.1c-0.8,1.8-2.1,3.3-3.9,4.4c-1.8,1.1-4.3,1.6-7.6,1.6c-3.3,0-5.9-0.5-7.7-1.6c-1.8-1.1-3.1-2.5-4-4.3&#xA;&#9;&#9;c-0.9-1.8-1.4-3.8-1.5-6.1c-0.2-2.3-0.2-4.7-0.2-7.1v-13.4h-38.3v13.4c0,2.4-0.1,4.8-0.2,7.1c-0.2,2.3-0.7,4.3-1.5,6.1&#xA;&#9;&#9;c-0.9,1.8-2.2,3.2-4,4.3c-1.8,1.1-4.3,1.6-7.7,1.6c-3.3,0-5.9-0.5-7.7-1.6c-1.8-1.1-3.1-2.5-3.9-4.4c-0.8-1.8-1.3-3.9-1.4-6.1&#xA;&#9;&#9;c-0.1-2.3-0.2-4.6-0.2-7v-2.9c0-2,0-4.1,0-6.3c0-2.2,0.1-4.5,0.1-6.8c0.1-2.3,0.1-4.6,0.2-6.9c0.1-2.3,0.1-4.4,0.2-6.5&#xA;&#9;&#9;c3.2-11.1,6.5-22.4,10.1-33.8c3.5-11.4,6.9-22.7,10.1-33.9c0.6-2.4,1.4-4.6,2.3-6.9c0.9-2.2,2.1-4.1,3.5-5.8&#xA;&#9;&#9;c1.5-1.6,3.4-2.9,5.7-3.9c2.3-1,5.2-1.5,8.8-1.5h9.6c3.5,0,6.4,0.5,8.8,1.5c2.3,1,4.2,2.3,5.7,3.9c1.5,1.6,2.6,3.5,3.5,5.8&#xA;&#9;&#9;c0.9,2.2,1.6,4.5,2.3,6.9L508.8,320.8z M448.6,311.4h30.5L464.9,260h-2.1L448.6,311.4z" id="el_pcIvm-ljub"/>
</g>
<g id="el_AoBgvdxtQG">
	<defs>
		<path id="SVGID_1_" d="M79.2,290.1c25.2-7.9,41.6-4.7,52.1,0c15.3,6.9,19.8,17.8,33.3,17.6c14-0.2,16.4-11.9,32.1-12.7&#xA;&#9;&#9;&#9;c14.1-0.7,15.5,8.4,30.9,9.1c18,0.8,21.2-11.4,38.8-10.3c15.2,0.9,15.5,10.2,30.3,10.3c12.2,0.1,14.5-6.2,35.7-11.5&#xA;&#9;&#9;&#9;c9.4-2.4,15.8-4,24.2-3.6c23.1,0.9,28.5,15.1,46,12.7c12.1-1.7,11.4-8.7,23-9.7c16.8-1.5,22.8,12.8,40,15.1&#xA;&#9;&#9;&#9;c16.3,2.2,32.7-7.6,40-15.8c21.6-24.4,4.1-82.2-21.8-115.7c-62.2-80.5-210.9-69.5-301.7-31.5c-30.1,12.6-97.5,40.8-107.8,97.5&#xA;&#9;&#9;&#9;C70.8,261.1,75,278.4,79.2,290.1z"/>
	</defs>
	<clipPath id="SVGID_2_">
		<use xlink:href="#SVGID_1_" style="overflow:visible;"/>
	</clipPath>
	<g id="el_l48oIR_Q38">
		<path d="M150.9,264l-1.5-1.5h-27.6c-2.6,0-5.1-0.1-7.7-0.4c-2.6-0.3-4.9-0.8-6.9-1.7c-2.1-0.9-3.8-2.1-5.1-3.8&#xA;&#9;&#9;&#9;c-1.3-1.7-2-4-2-6.9c0-3.3,0.7-6,2-7.9c1.3-1.9,3-3.4,5.1-4.4c2.1-1,4.4-1.6,6.9-1.9c2.6-0.3,5.1-0.4,7.7-0.4h50.4&#xA;&#9;&#9;&#9;c2.4,0,4.6,0.4,6.5,1.3c1.9,0.9,3.5,2,4.7,3.4c1.3,1.4,2.3,3,2.9,4.7s1,3.5,1,5.2c0,1-0.1,1.9-0.3,2.8c-0.2,0.9-0.5,1.7-0.9,2.4&#xA;&#9;&#9;&#9;l-49.3,85.7l1.3,1.3h27.6c2.5,0,5,0.1,7.6,0.4c2.6,0.3,4.9,0.8,7,1.8c2.1,0.9,3.8,2.3,5.1,4.1c1.3,1.8,2,4.3,2,7.4&#xA;&#9;&#9;&#9;c0,3.2-0.7,5.7-2,7.5c-1.3,1.8-3,3.2-5.1,4.1c-2.1,0.9-4.4,1.5-7,1.8c-2.6,0.3-5.1,0.4-7.6,0.4h-50.4c-2.4,0-4.6-0.4-6.5-1.2&#xA;&#9;&#9;&#9;s-3.5-1.8-4.8-3.1c-1.3-1.3-2.3-2.7-3-4.4c-0.7-1.7-1.1-3.4-1.1-5.1c0-1.1,0.1-2.2,0.2-3c0.2-0.9,0.5-1.8,1.1-2.7L150.9,264z" id="el_1LSR6qR6od"/>
		<path d="M203.2,273c0-6.1,0.9-11.4,2.7-15.7c1.8-4.3,4.1-7.9,6.9-10.8c2.8-2.9,5.8-5.1,9.2-6.8&#xA;&#9;&#9;&#9;c3.4-1.6,6.6-2.9,9.8-3.7c3.2-0.8,6-1.3,8.6-1.5c2.6-0.2,4.4-0.3,5.7-0.3h3.3c1.2,0,3.1,0.1,5.7,0.3c2.6,0.2,5.4,0.7,8.5,1.5&#xA;&#9;&#9;&#9;c3.1,0.8,6.4,2.1,9.7,3.7c3.4,1.6,6.4,3.9,9.1,6.8c2.7,2.9,5,6.5,6.7,10.8c1.8,4.3,2.6,9.5,2.6,15.7v57.3c0,6.3-0.9,11.7-2.6,16.1&#xA;&#9;&#9;&#9;c-1.8,4.4-4,8.1-6.7,11c-2.7,2.9-5.8,5.3-9.1,6.9s-6.6,3-9.7,3.8c-3.1,0.8-6,1.3-8.5,1.5c-2.6,0.2-4.4,0.3-5.7,0.3H246&#xA;&#9;&#9;&#9;c-1.2,0-3.1-0.1-5.7-0.3c-2.6-0.2-5.4-0.7-8.6-1.5c-3.2-0.8-6.4-2.1-9.8-3.8s-6.4-4-9.2-6.9c-2.8-2.9-5.1-6.6-6.9-11&#xA;&#9;&#9;&#9;c-1.8-4.4-2.7-9.8-2.7-16.1V273z M235,334c0.1,2.4,0.7,4.4,1.6,6.2c0.8,1.6,2.1,3,3.8,4.3c1.7,1.3,4.1,1.9,7.2,1.9&#xA;&#9;&#9;&#9;c3.1,0,5.4-0.6,7.1-1.9c1.7-1.3,2.9-2.7,3.7-4.3c0.9-1.8,1.4-3.9,1.6-6.2v-62.5c-0.2-2.3-0.7-4.4-1.6-6.2c-0.8-1.5-2.1-3-3.7-4.3&#xA;&#9;&#9;&#9;c-1.7-1.3-4-2-7.1-2c-3.1,0-5.5,0.7-7.2,2c-1.7,1.3-3,2.7-3.8,4.3c-1,1.9-1.5,3.9-1.6,6.2V334z" id="el_X-5lreI5CI"/>
		<path d="M315,256.9c0-2.7,0.1-5.4,0.2-8.1c0.2-2.6,0.7-5,1.6-7c0.9-2,2.3-3.7,4.3-4.9c1.9-1.2,4.7-1.9,8.3-1.9H361&#xA;&#9;&#9;&#9;c7.9,0.4,14.9,2,21.1,5c2.6,1.3,5.2,2.9,7.7,4.7c2.5,1.9,4.8,4.2,6.8,7c2,2.8,3.6,6.1,4.8,9.8c1.2,3.8,1.8,8.1,1.8,13.1&#xA;&#9;&#9;&#9;c0,1-0.1,2.4-0.3,4.1c-0.2,1.7-0.6,3.5-1.2,5.6c-0.6,2-1.5,4.1-2.6,6.3c-1.1,2.2-2.5,4.3-4.3,6.2c-1.8,2-4,3.8-6.6,5.5&#xA;&#9;&#9;&#9;c-2.6,1.7-5.6,3-9.2,4c2.2,0.9,4.5,2.1,6.8,3.5s4.4,3.3,6.2,5.5c1.9,2.2,3.4,4.9,4.6,8.1c1.2,3.1,1.8,6.8,1.8,10.9V348&#xA;&#9;&#9;&#9;c0,0.8,0.2,1.4,0.6,1.9c0.4,0.5,0.8,1,1.1,1.3c1.5,1.5,2.4,2.9,2.7,4c0.3,1.1,0.4,2,0.4,2.7c0,2.2-0.4,4.1-1.3,5.7&#xA;&#9;&#9;&#9;c-0.9,1.5-2.1,2.8-3.5,3.7c-1.4,1-3.1,1.6-4.9,2.1c-1.8,0.4-3.7,0.6-5.6,0.6c-2.1,0-4.3-0.3-6.4-1c-2.2-0.7-4.2-1.6-5.9-2.9&#xA;&#9;&#9;&#9;c-1.8-1.3-3.2-2.9-4.4-4.8c-1.1-1.9-1.7-4.1-1.7-6.6v-20.3c0-2.8-0.2-5.4-0.6-7.8c-0.4-2.4-1.1-4.4-2.2-6.1&#xA;&#9;&#9;&#9;c-1.1-1.7-2.6-3.1-4.5-4s-4.4-1.4-7.5-1.4h-10.7v32c0,2.8-0.1,5.6-0.2,8.2c-0.2,2.7-0.7,5.1-1.6,7.1c-0.9,2.1-2.3,3.7-4.3,5&#xA;&#9;&#9;&#9;c-2,1.2-4.8,1.9-8.4,1.9c-3.6,0-6.3-0.6-8.3-1.9c-2-1.2-3.4-2.9-4.3-5c-0.9-2.1-1.4-4.5-1.6-7.1c-0.2-2.7-0.2-5.4-0.2-8.2V256.9z&#xA;&#9;&#9;&#9; M357,293.6c3.2-0.1,6.1-0.9,8.6-2.3c1.1-0.6,2.1-1.3,3.2-2.2c1-0.9,1.9-2,2.8-3.4c0.8-1.3,1.5-2.9,2-4.7c0.5-1.8,0.7-3.9,0.7-6.2&#xA;&#9;&#9;&#9;c0-2.1-0.2-4-0.7-5.6c-0.5-1.6-1.1-3.1-1.9-4.3c-0.8-1.2-1.6-2.2-2.6-3.1c-1-0.8-2-1.5-3-2c-2.4-1.2-5.2-1.9-8.2-2.1h-13.8v35.8&#xA;&#9;&#9;&#9;H357z" id="el_EsSRMG6nP_"/>
		<path d="M508.8,320.8c0.1,4.3,0.3,8.8,0.5,13.3s0.3,8.9,0.3,13.1v2.9c0,2.4-0.1,4.8-0.2,7c-0.2,2.3-0.7,4.3-1.5,6.1&#xA;&#9;&#9;&#9;c-0.8,1.8-2.1,3.3-3.9,4.4c-1.8,1.1-4.3,1.6-7.6,1.6c-3.3,0-5.9-0.5-7.7-1.6c-1.8-1.1-3.1-2.5-4-4.3c-0.9-1.8-1.4-3.8-1.5-6.1&#xA;&#9;&#9;&#9;c-0.2-2.3-0.2-4.7-0.2-7.1v-13.4h-38.3v13.4c0,2.4-0.1,4.8-0.2,7.1c-0.2,2.3-0.7,4.3-1.5,6.1s-2.2,3.2-4,4.3&#xA;&#9;&#9;&#9;c-1.8,1.1-4.3,1.6-7.7,1.6c-3.3,0-5.9-0.5-7.7-1.6c-1.8-1.1-3.1-2.5-3.9-4.4c-0.8-1.8-1.3-3.9-1.4-6.1c-0.1-2.3-0.2-4.6-0.2-7&#xA;&#9;&#9;&#9;v-2.9c0-2,0-4.1,0-6.3c0-2.2,0.1-4.5,0.1-6.8c0.1-2.3,0.1-4.6,0.2-6.9c0.1-2.3,0.1-4.4,0.2-6.5c3.2-11.1,6.5-22.4,10.1-33.8&#xA;&#9;&#9;&#9;c3.5-11.4,6.9-22.7,10.1-33.9c0.6-2.4,1.4-4.6,2.3-6.9c0.9-2.2,2.1-4.1,3.5-5.8c1.5-1.6,3.4-2.9,5.7-3.9c2.3-1,5.2-1.5,8.8-1.5&#xA;&#9;&#9;&#9;h9.6c3.5,0,6.4,0.5,8.8,1.5c2.3,1,4.2,2.3,5.7,3.9c1.5,1.6,2.6,3.5,3.5,5.8c0.9,2.2,1.6,4.5,2.3,6.9L508.8,320.8z M448.6,311.4&#xA;&#9;&#9;&#9;h30.5L464.9,260h-2.1L448.6,311.4z" id="el_VwHSD731iy"/>
	</g>
</g>
<g id="el_aHDTYco3mi_nzMFXoBG8" data-animator-group="true" data-animator-type="0"><g id="el_aHDTYco3mi">
	<defs>
		<path id="SVGID_3_" d="M67.1,274.4c25.2-7.9,41.6-4.7,52.1,0c15.3,6.9,19.8,17.8,33.3,17.6c14-0.2,16.4-11.9,32.1-12.7&#xA;&#9;&#9;&#9;c14.1-0.7,15.5,8.4,30.9,9.1c18,0.8,21.2-11.4,38.8-10.3c15.2,0.9,15.5,10.2,30.3,10.3c12.2,0.1,14.5-6.2,35.7-11.5&#xA;&#9;&#9;&#9;c9.4-2.4,15.8-4,24.2-3.6c23.1,0.9,28.5,15.1,46,12.7c12.1-1.7,11.4-8.7,23-9.7c16.8-1.5,22.8,12.8,40,15.1&#xA;&#9;&#9;&#9;c16.3,2.2,32.7-7.6,40-15.8c21.6-24.4,4.1-82.2-21.8-115.7c-62.2-80.5-210.9-69.5-301.7-31.5C140.1,141,72.6,169.2,62.3,226&#xA;&#9;&#9;&#9;C58.7,245.4,62.9,262.7,67.1,274.4z"/>
	</defs>
	<clipPath id="SVGID_4_">
		<use xlink:href="#SVGID_3_" style="overflow:visible;"/>
	</clipPath>
	<g id="el_527JvcE5YP">
		<path d="M138.8,248.4l-1.5-1.5h-27.6c-2.6,0-5.1-0.1-7.7-0.4c-2.6-0.3-4.9-0.8-6.9-1.7c-2.1-0.9-3.8-2.1-5.1-3.8&#xA;&#9;&#9;&#9;c-1.3-1.7-2-4-2-6.9c0-3.3,0.7-6,2-7.9c1.3-1.9,3-3.4,5.1-4.4c2.1-1,4.4-1.6,6.9-1.9c2.6-0.3,5.1-0.4,7.7-0.4h50.4&#xA;&#9;&#9;&#9;c2.4,0,4.6,0.4,6.5,1.3c1.9,0.9,3.5,2,4.7,3.4c1.3,1.4,2.3,3,2.9,4.7s1,3.5,1,5.2c0,1-0.1,1.9-0.3,2.8c-0.2,0.9-0.5,1.7-0.9,2.4&#xA;&#9;&#9;&#9;l-49.3,85.7l1.3,1.3h27.6c2.5,0,5,0.1,7.6,0.4c2.6,0.3,4.9,0.8,7,1.8c2.1,0.9,3.8,2.3,5.1,4.1c1.3,1.8,2,4.3,2,7.4&#xA;&#9;&#9;&#9;c0,3.2-0.7,5.7-2,7.5c-1.3,1.8-3,3.2-5.1,4.1c-2.1,0.9-4.4,1.5-7,1.8c-2.6,0.3-5.1,0.4-7.6,0.4h-50.4c-2.4,0-4.6-0.4-6.5-1.2&#xA;&#9;&#9;&#9;c-1.9-0.8-3.5-1.8-4.8-3.1c-1.3-1.3-2.3-2.7-3-4.4c-0.7-1.7-1.1-3.4-1.1-5.1c0-1.1,0.1-2.2,0.2-3c0.2-0.9,0.5-1.8,1.1-2.7&#xA;&#9;&#9;&#9;L138.8,248.4z" id="el_lpaF3rt9NZ"/>
		<path d="M191.2,257.4c0-6.1,0.9-11.4,2.7-15.7c1.8-4.3,4.1-7.9,6.9-10.8c2.8-2.9,5.8-5.1,9.2-6.8&#xA;&#9;&#9;&#9;c3.4-1.6,6.6-2.9,9.8-3.7c3.2-0.8,6-1.3,8.6-1.5c2.6-0.2,4.4-0.3,5.7-0.3h3.3c1.2,0,3.1,0.1,5.7,0.3c2.6,0.2,5.4,0.7,8.5,1.5&#xA;&#9;&#9;&#9;c3.1,0.8,6.4,2.1,9.7,3.7c3.4,1.6,6.4,3.9,9.1,6.8c2.7,2.9,5,6.5,6.7,10.8c1.8,4.3,2.6,9.5,2.6,15.7v57.3c0,6.3-0.9,11.7-2.6,16.1&#xA;&#9;&#9;&#9;c-1.8,4.4-4,8.1-6.7,11c-2.7,2.9-5.8,5.3-9.1,6.9c-3.4,1.7-6.6,3-9.7,3.8c-3.1,0.8-6,1.3-8.5,1.5c-2.6,0.2-4.4,0.3-5.7,0.3h-3.3&#xA;&#9;&#9;&#9;c-1.2,0-3.1-0.1-5.7-0.3c-2.6-0.2-5.4-0.7-8.6-1.5c-3.2-0.8-6.4-2.1-9.8-3.8c-3.4-1.7-6.4-4-9.2-6.9c-2.8-2.9-5.1-6.6-6.9-11&#xA;&#9;&#9;&#9;c-1.8-4.4-2.7-9.8-2.7-16.1V257.4z M223,318.4c0.1,2.4,0.7,4.4,1.6,6.2c0.8,1.6,2.1,3,3.8,4.3c1.7,1.3,4.1,1.9,7.2,1.9&#xA;&#9;&#9;&#9;c3.1,0,5.4-0.6,7.1-1.9c1.7-1.3,2.9-2.7,3.7-4.3c0.9-1.8,1.4-3.9,1.6-6.2v-62.5c-0.2-2.3-0.7-4.4-1.6-6.2c-0.8-1.5-2.1-3-3.7-4.3&#xA;&#9;&#9;&#9;c-1.7-1.3-4-2-7.1-2c-3.1,0-5.5,0.7-7.2,2c-1.7,1.3-3,2.7-3.8,4.3c-1,1.9-1.5,3.9-1.6,6.2V318.4z" id="el_c_ubkfA1QS"/>
		<path d="M302.9,241.3c0-2.7,0.1-5.4,0.2-8.1c0.2-2.6,0.7-5,1.6-7c0.9-2,2.3-3.7,4.3-4.9s4.7-1.9,8.3-1.9H349&#xA;&#9;&#9;&#9;c7.9,0.4,14.9,2,21.1,5c2.6,1.3,5.2,2.9,7.7,4.7c2.5,1.9,4.8,4.2,6.8,7c2,2.8,3.6,6.1,4.8,9.8c1.2,3.8,1.8,8.1,1.8,13.1&#xA;&#9;&#9;&#9;c0,1-0.1,2.4-0.3,4.1c-0.2,1.7-0.6,3.5-1.2,5.6c-0.6,2-1.5,4.1-2.6,6.3c-1.1,2.2-2.5,4.3-4.3,6.2c-1.8,2-4,3.8-6.6,5.5&#xA;&#9;&#9;&#9;c-2.6,1.7-5.6,3-9.2,4c2.2,0.9,4.5,2.1,6.8,3.5s4.4,3.3,6.2,5.5c1.9,2.2,3.4,4.9,4.6,8.1c1.2,3.1,1.8,6.8,1.8,10.9v13.6&#xA;&#9;&#9;&#9;c0,0.8,0.2,1.4,0.6,1.9c0.4,0.5,0.8,1,1.1,1.3c1.5,1.5,2.4,2.9,2.7,4c0.3,1.1,0.4,2,0.4,2.7c0,2.2-0.4,4.1-1.3,5.7&#xA;&#9;&#9;&#9;c-0.9,1.5-2.1,2.8-3.5,3.7c-1.4,1-3.1,1.6-4.9,2.1c-1.8,0.4-3.7,0.6-5.6,0.6c-2.1,0-4.3-0.3-6.4-1c-2.2-0.7-4.2-1.6-5.9-2.9&#xA;&#9;&#9;&#9;c-1.8-1.3-3.2-2.9-4.4-4.8c-1.1-1.9-1.7-4.1-1.7-6.6v-20.3c0-2.8-0.2-5.4-0.6-7.8c-0.4-2.4-1.1-4.4-2.2-6.1&#xA;&#9;&#9;&#9;c-1.1-1.7-2.6-3.1-4.5-4c-1.9-1-4.4-1.4-7.5-1.4h-10.7v32c0,2.8-0.1,5.6-0.2,8.2c-0.2,2.7-0.7,5.1-1.6,7.1c-0.9,2.1-2.3,3.7-4.3,5&#xA;&#9;&#9;&#9;c-2,1.2-4.8,1.9-8.4,1.9c-3.6,0-6.3-0.6-8.3-1.9s-3.4-2.9-4.3-5c-0.9-2.1-1.4-4.5-1.6-7.1c-0.2-2.7-0.2-5.4-0.2-8.2V241.3z&#xA;&#9;&#9;&#9; M344.9,277.9c3.2-0.1,6.1-0.9,8.6-2.3c1.1-0.6,2.1-1.3,3.2-2.2c1-0.9,1.9-2,2.8-3.4s1.5-2.9,2-4.7c0.5-1.8,0.7-3.9,0.7-6.2&#xA;&#9;&#9;&#9;c0-2.1-0.2-4-0.7-5.6c-0.5-1.6-1.1-3.1-1.9-4.3c-0.8-1.2-1.6-2.2-2.6-3.1c-1-0.8-2-1.5-3-2c-2.4-1.2-5.2-1.9-8.2-2.1h-13.8v35.8&#xA;&#9;&#9;&#9;H344.9z" id="el_ofkOVlhZKYf"/>
		<path d="M496.8,305.1c0.1,4.3,0.3,8.8,0.5,13.3c0.2,4.5,0.3,8.9,0.3,13.1v2.9c0,2.4-0.1,4.8-0.2,7&#xA;&#9;&#9;&#9;c-0.2,2.3-0.7,4.3-1.5,6.1c-0.8,1.8-2.1,3.3-3.9,4.4c-1.8,1.1-4.3,1.6-7.6,1.6c-3.3,0-5.9-0.5-7.7-1.6c-1.8-1.1-3.1-2.5-4-4.3&#xA;&#9;&#9;&#9;c-0.9-1.8-1.4-3.8-1.5-6.1c-0.2-2.3-0.2-4.7-0.2-7.1V321h-38.3v13.4c0,2.4-0.1,4.8-0.2,7.1c-0.2,2.3-0.7,4.3-1.5,6.1&#xA;&#9;&#9;&#9;c-0.9,1.8-2.2,3.2-4,4.3c-1.8,1.1-4.3,1.6-7.7,1.6c-3.3,0-5.9-0.5-7.7-1.6c-1.8-1.1-3.1-2.5-3.9-4.4c-0.8-1.8-1.3-3.9-1.4-6.1&#xA;&#9;&#9;&#9;c-0.1-2.3-0.2-4.6-0.2-7v-2.9c0-2,0-4.1,0-6.3c0-2.2,0.1-4.5,0.1-6.8s0.1-4.6,0.2-6.9c0.1-2.3,0.1-4.4,0.2-6.5&#xA;&#9;&#9;&#9;c3.2-11.1,6.5-22.4,10.1-33.8c3.5-11.4,6.9-22.7,10.1-33.9c0.6-2.4,1.4-4.6,2.3-6.9c0.9-2.2,2.1-4.1,3.5-5.8&#xA;&#9;&#9;&#9;c1.5-1.6,3.4-2.9,5.7-3.9c2.3-1,5.2-1.5,8.8-1.5h9.6c3.5,0,6.4,0.5,8.8,1.5c2.3,1,4.2,2.3,5.7,3.9c1.5,1.6,2.6,3.5,3.5,5.8&#xA;&#9;&#9;&#9;c0.9,2.2,1.6,4.5,2.3,6.9L496.8,305.1z M436.6,295.7H467l-14.2-51.4h-2.1L436.6,295.7z" id="el_7ukr5n95Ft9"/>
	</g>
</g></g>
<script>(function(){var a=document.querySelector('#el_ypLMaZA_1'),b=a.querySelectorAll('style'),c=function(d){b.forEach(function(f){var g=f.textContent;g&amp;&amp;(f.textContent=g.replace(/transform-box:[^;\r\n]*/gi,'transform-box: '+d))})};c('initial'),window.requestAnimationFrame(function(){return c('fill-box')})})();</script></svg>